<?xml version="1.0" ?><!DOCTYPE svg  PUBLIC '-//W3C//DTD SVG 1.1//EN'  'http://www.w3.org/Graphics/SVG/1.1/DTD/svg11.dtd'><svg enable-background="new 0 0 1024 1024" height="1024px" id="Skype_2_" version="1.1" viewBox="0 0 1024 1024" width="1024px" xml:space="preserve" xmlns="http://www.w3.org/2000/svg" xmlns:xlink="http://www.w3.org/1999/xlink"><g id="Background"><g id="bg_1_"><path d="M75.094,306.008c0-27.5,19.413-61.375,43.14-75.277L468.861,25.286c23.727-13.902,62.553-13.902,86.28,0    l350.625,205.445c23.729,13.902,43.141,47.777,43.141,75.277v412c0,27.5-19.412,61.375-43.141,75.277L555.141,998.731    c-23.727,13.901-62.553,13.901-86.28,0L118.234,793.286c-23.727-13.902-43.14-47.777-43.14-75.277V306.008z" fill="#00AFF0"/></g><path d="M938.092,262.262c0,0-1.043-2.021-3.289-5.308   c-1.816-2.664-3.744-5.56-6.109-8.186c-5-5.547-6.697-6.942-7.377-7.551c-2.637-2.356-5.848-4.802-8.945-6.617   c-2.26-1.325-362.889-212.631-362.889-212.631s-6.123-3.544-11.67-5.322c-5.547-1.777-9.457-2.56-13.51-3.129   c-4.053-0.568-9.672-0.853-13.297-0.853c-3.627,0-12.089,0.711-15.716,1.564c-3.627,0.854-6.276,1.511-7.236,1.831   s-3.173,1.093-4.08,1.387c-0.907,0.293-5.094,2.16-5.333,2.293c-0.239,0.133-1.643,0.776-2.431,1.238   S124.594,227.003,124.594,227.003s-14.797,8.097-20.628,13.074c-2.496,2.131-5.266,4.867-7.658,7.582   c-3.196,3.627-5.807,7.203-7.027,9.093c-0.922,1.43-2.28,3.534-3.493,5.707c-1.577,2.825-3.032,5.836-3.667,7.146   c-1.162,2.399-3.293,8.053-3.827,9.76c-0.533,1.707-1.546,5.534-1.707,6.436c-0.042,0.234-0.693,3.52-0.747,3.911   c-0.053,0.392-0.44,2.92-0.533,4.267c-0.034,0.48-0.212,2.897-0.213,2.969c0,0.071,0,429.511,0,429.511s0.349,5.079,0.426,5.635   c0.028,0.202,0.454,3.433,0.782,4.836c0.213,0.91,0.64,2.987,0.925,3.982c0.285,0.995,0.729,2.636,0.96,3.342   c0.213,0.653,0.959,2.917,1.208,3.591c0.25,0.675,1.25,3.248,1.529,3.912c0.286,0.68,1.813,4.018,1.92,4.23   C82.952,756.203,938.092,262.262,938.092,262.262z" enable-background="new    " fill="#FFFFFF" id="bg-light" opacity="0.2"/></g><g id="Skype_3_"><path d="M626.127,437.422c7.707-5.721,13.291-14.274,14.125-24.139c0.771-9.113-3.77-18.835-9.582-25.69   c-9.018-10.633-20.305-20.191-31.867-27.937c-6.725-4.505-13.965-8.548-21.357-11.856c-18.75-8.388-39.365-12.579-59.854-13.145   c-11.312-0.313-23.064,0.045-34.29,1.574c-30.89,4.207-62.099,12.909-84.602,35.678c-5.641,5.706-10.854,12.155-15.308,18.832   c-5.315,7.971-9.399,16.653-11.729,25.975c-5.728,22.913-2.571,52.44,10.997,71.936c16.193,23.268,44.112,35.593,70.583,42.925   c16.502,4.571,33.336,6.778,50.082,10.115c10.02,1.995,20.004,4.212,29.801,7.128c12.203,3.631,26.773,8.324,34.459,19.175   c13.371,18.88,6.113,45.866-13.014,57.285c-19.322,11.536-45.256,14.211-66.672,7.666c-11.452-3.5-22.467-8.591-31.625-16.419   c-10.457-8.938-16.568-21.383-26.41-30.83c-10.267-9.856-29.189-16.465-42.835-10.176c-22.606,10.42-22.127,44.765-9,62.433   c5.139,6.917,11.981,14.149,18.809,19.4c38.329,29.484,91.441,34.376,138.156,31.182c13.719-0.939,28.383-2.861,41.471-7.288   c29.012-9.813,57.172-27.733,69.545-58.88c12.375-31.146,8.533-56.747,2.986-73.389c-12.432-37.292-51.285-53.284-85.873-62.361   c-8.303-2.181-16.66-4.136-25.061-5.903c-15.85-3.337-31.586-7.055-47.507-10.038c-16.714-3.131-41.511-7.508-45.416-27.622   c-3.745-19.3,8.73-38.61,26.139-45.297c19.459-7.474,42.921-6.618,62.085,1.278c10.193,4.2,22.402,10.635,30.439,18.298   c13.482,12.854,25.328,31.59,46.859,26.997C615.952,443.202,621.768,440.658,626.127,437.422z" fill="#FFFFFF"/><path d="M755.887,574.885   c-2.744-5.88-6.145-11.475-10.289-16.664c-3.059-3.831-0.799-9.583,0.164-13.759c7.178-31.139,3.6-63.638-3.854-94.399   c-2.105-8.696-4.809-17.268-8.209-25.544c-13.404-32.611-34.18-64.142-59.895-88.338c-14.158-13.323-30.746-25.492-47.813-34.855   c-26.383-14.474-54.988-22.712-84.787-26.315c-12.979-1.569-26.023-3.239-39.123-3.003c-6.558,0.118-13.11,0.688-19.544,1.994   c-5.626,1.143-11.872,3.696-17.497,1.242c-10.51-4.583-20.962-9.688-32.111-12.563c-8.051-2.076-16.46-2.999-24.717-3.826   c-22.695-2.273-44.815,1.568-65.929,10.143c-14.891,6.046-28.437,15.328-40.506,25.878c-15.867,13.869-29.425,36.975-35.632,56.976   c-6.525,21.028-10.025,44.201-5.949,66.02c1.889,10.104,5.065,19.937,9.131,29.37c1.707,3.959,4.071,7.598,5.774,11.557   c1.809,4.205,0.946,7.229-0.144,11.524c-3.692,14.557-3.889,30.188-3.741,45.128c0.355,35.798,9.047,73.513,24.79,105.587   c15.991,32.58,39.166,61.896,68.949,82.875c29.411,20.715,62.281,36.123,97.724,42.905c19.769,3.782,39.604,1.905,59.353-0.899   c8.584-1.219,26.162-6.536,34.039-0.909c0.006,0.004,78.176,56.401,161.369-16.552c24.711-21.67,42.736-52.826,46.832-85.66   C767.1,620.136,765.612,595.718,755.887,574.885z" fill="none" stroke="#FFFFFF" stroke-miterlimit="10" stroke-width="35"/></g></svg>