<?xml version="1.0" ?><!DOCTYPE svg  PUBLIC '-//W3C//DTD SVG 1.1//EN'  'http://www.w3.org/Graphics/SVG/1.1/DTD/svg11.dtd'><svg enable-background="new 0 0 1024 1024" height="1024px" id="Twitter_1_" version="1.1" viewBox="0 0 1024 1024" width="1024px" xml:space="preserve" xmlns="http://www.w3.org/2000/svg" xmlns:xlink="http://www.w3.org/1999/xlink"><g id="Background"><g id="bg_1_"><path d="M75.094,306.009c0-27.5,19.413-61.375,43.14-75.277L468.861,25.286c23.727-13.902,62.553-13.902,86.28,0    l350.625,205.445c23.729,13.902,43.141,47.777,43.141,75.277v412c0,27.5-19.412,61.375-43.141,75.277L555.141,998.731    c-23.727,13.901-62.553,13.901-86.28,0L118.234,793.286c-23.727-13.902-43.14-47.777-43.14-75.277V306.009z" fill="#00ACED"/></g><path d="M938.092,262.262c0,0-1.043-2.021-3.287-5.308   c-1.818-2.663-3.744-5.561-6.111-8.186c-5-5.547-6.697-6.941-7.377-7.551c-2.637-2.355-5.848-4.802-8.945-6.617   c-2.26-1.324-362.889-212.631-362.889-212.631s-6.123-3.544-11.67-5.321s-9.457-2.56-13.51-3.129   c-4.053-0.568-9.672-0.854-13.297-0.854c-3.627,0-12.089,0.712-15.716,1.565s-6.276,1.511-7.236,1.83   c-0.96,0.32-3.173,1.094-4.08,1.387c-0.907,0.294-5.094,2.16-5.333,2.294c-0.239,0.133-1.643,0.776-2.431,1.238   S124.594,227.004,124.594,227.004s-14.797,8.097-20.628,13.074c-2.497,2.131-5.266,4.866-7.658,7.582   c-3.196,3.627-5.807,7.202-7.026,9.093c-0.923,1.431-2.28,3.533-3.494,5.707c-1.577,2.825-3.032,5.837-3.667,7.146   c-1.162,2.398-3.293,8.054-3.827,9.76c-0.533,1.707-1.547,5.534-1.707,6.436c-0.042,0.234-0.693,3.521-0.747,3.911   c-0.053,0.392-0.44,2.92-0.533,4.267c-0.033,0.48-0.211,2.897-0.212,2.969c-0.001,0.072-0.001,429.512-0.001,429.512   s0.349,5.078,0.427,5.635c0.028,0.203,0.453,3.433,0.782,4.837c0.213,0.91,0.64,2.986,0.924,3.981   c0.284,0.995,0.729,2.636,0.96,3.342c0.213,0.653,0.96,2.917,1.209,3.592s1.25,3.247,1.529,3.911   c0.286,0.682,1.813,4.019,1.92,4.23C82.951,756.203,938.092,262.262,938.092,262.262z" enable-background="new    " fill="#FFFFFF" id="bg-light" opacity="0.2"/></g><path d="M709.11,375.06c0,0,44.955-37.835,43.529-54.719c0,0-51.869,22.782-63.262,23.8  c0,0-3.605-3.63-9.512-8.401c-1.967-1.591-4.191-3.309-6.623-5.062c-4.504-3.288-9.244-6.113-14.166-8.507  c-2.461-1.196-4.969-2.286-7.508-3.277c-16.537-7.246-34.654-9.021-52.438-7.075c-2.541,0.277-5.074,0.632-7.596,1.057  c-29.496,4.617-54.721,22.518-70.594,46.924c-1.424,2.226-2.744,4.512-3.949,6.854c-2.406,4.687-4.342,9.604-5.705,14.736  c-0.535,1.895-1.12,4.101-1.672,6.455c-0.554,2.355-1.074,4.86-1.481,7.353c-1.627,9.968,0,42.311,0,42.311  s-131.203,4.068-215.417-104.962c0,0-41.496,78.519,30.105,133.44c0,0-14.563,6.51-42.065-9.765c0,0-13.67,59.804,75.019,100.894  h-43.125c0,0,15.053,66.313,95.198,72.417c0,0-37.835,50.853-147.68,43.123c0,0,99.105,68.911,226.787,36.929  c2.279-0.571,4.569-1.175,6.867-1.811c20.208-6.233,40.549-13.557,59.026-23.375c1.611-0.838,3.225-1.692,4.84-2.566  c4.844-2.623,9.707-5.413,14.59-8.378c0,0,134.248-72.739,145.23-260.684c0,0,28.211-16.556,46.316-48.288  C763.829,364.482,712.973,376.28,709.11,375.06z" fill="#FFFFFF" id="Twitter"/></svg>